# xmcd
#
# Track frame offsets:
#	150
#	24601
#	47327
#	66873
#	120949
#	140746
#	159269
#	175341
#	194725
#	214808
#	244072
#
# Disc length: 3478 seconds
#
# Revision: 0
# Processed by: cddbd v1.5.2PL0 Copyright (c) Steve Scherf et al.
# Submitted via: EZCDAudioConverter 7.1.4.1
#
DISCID=9a0d940b
DTITLE=Paula and the Pontiacs - Live at Ruby's Roadhouse
DYEAR=2000
DGENRE=blues
TTITLE0=Walkin' to my baby
TTITLE1=Harmonica girl
TTITLE2=Grits ain't groceries/All around the world
TTITLE3=Blues with a feeling/Wang dang doodle
TTITLE4=The things that I used to do
TTITLE5=I'm tore down
TTITLE6=You'll lose a good thing
TTITLE7=Coffee blues
TTITLE8=I wants to be loved
TTITLE9=No money cown
TTITLE10=Pontiac blues
EXTD=
EXTT0=
EXTT1=
EXTT2=
EXTT3=
EXTT4=
EXTT5=
EXTT6=
EXTT7=
EXTT8=
EXTT9=
EXTT10=
PLAYORDER=
